# xmcd
#
# Track frame offsets: 
#        150
#        17043
#        27337
#        39789
#        51601
#        65376
#        81003
#        96108
#        109357
#        125692
#        137595
#        156962
#        171885
#        195573
#        207257
#
# Disc length: 3152 seconds
#
# Revision: 0
# Processed by: cddbd v1.5.2PL0 Copyright (c) Steve Scherf et al.
# Submitted via: ExactAudioCopy v0.99pb4
#
DISCID=ce0c4e0f
DTITLE=Coolish Blues Session - Boogieman
DYEAR=2000
DGENRE=blues
TTITLE0=Hello Mr. Blues
TTITLE1=Moja mama powiedziala
TTITLE2=Boogieman
TTITLE3=Blues Kubusia Puchatka
TTITLE4=Szczesciarz ( Czasami staje przy drodze)
TTITLE5=Gdy jestem sam
TTITLE6=Woogie - Boogie
TTITLE7=Luizjana
TTITLE8=Czarny z Alabamy
TTITLE9=Chodz , chodz
TTITLE10=Everyday
TTITLE11=Wojny nie bedzie
TTITLE12=W moim domu jest blues
TTITLE13=Za oknem Dudek
TTITLE14=Sikora Blues
EXTD=
EXTT0=
EXTT1=
EXTT2=
EXTT3=
EXTT4=
EXTT5=
EXTT6=
EXTT7=
EXTT8=
EXTT9=
EXTT10=
EXTT11=
EXTT12=
EXTT13=
EXTT14=
PLAYORDER=
